<svg width="25" height="25" viewBox="0 0 25 25" fill="none" xmlns="http://www.w3.org/2000/svg">
<path d="M23.7304 9.375C23.6093 9.00128 23.3801 8.67189 23.0717 8.42851C22.7633 8.18514 22.3897 8.03873 21.998 8.00781L16.4717 7.56152L14.3388 2.4043C14.189 2.03981 13.9341 1.72808 13.6067 1.50871C13.2793 1.28933 12.8941 1.17221 12.5 1.17221C12.1059 1.17221 11.7207 1.28933 11.3932 1.50871C11.0658 1.72808 10.811 2.03981 10.6611 2.4043L8.53025 7.5625L3.00389 8.00781C2.61153 8.04017 2.23748 8.18778 1.92876 8.43208C1.62004 8.67639 1.39041 9.00649 1.26873 9.38091C1.14706 9.75533 1.13876 10.1574 1.24489 10.5365C1.35102 10.9156 1.56683 11.2549 1.86522 11.5117L6.08201 15.1484L4.79295 20.5879C4.69893 20.9714 4.72117 21.3742 4.85684 21.745C4.99251 22.1158 5.23547 22.4379 5.55478 22.6702C5.87409 22.9025 6.25531 23.0345 6.64989 23.0494C7.04447 23.0643 7.43456 22.9614 7.77049 22.7539L12.5 19.8428L17.2295 22.7539C17.5653 22.96 17.9548 23.0619 18.3485 23.0466C18.7423 23.0313 19.1226 22.8995 19.4414 22.6679C19.7602 22.4363 20.0032 22.1153 20.1394 21.7455C20.2757 21.3758 20.2992 20.9739 20.207 20.5908L18.9179 15.1514L23.1347 11.5146C23.4349 11.2572 23.6518 10.9163 23.7579 10.5354C23.8639 10.1544 23.8544 9.75053 23.7304 9.375ZM16.8486 13.8379C16.686 13.9781 16.565 14.1602 16.4989 14.3645C16.4328 14.5687 16.424 14.7872 16.4736 14.9961L17.7324 20.3125L13.1142 17.4727C12.9295 17.359 12.7169 17.2988 12.5 17.2988C12.2831 17.2988 12.0704 17.359 11.8857 17.4727L7.26756 20.3125L8.52635 15C8.57593 14.7911 8.56718 14.5726 8.50105 14.3684C8.43492 14.1641 8.31395 13.982 8.15135 13.8418L4.02342 10.2773L9.43357 9.84082C9.64887 9.82352 9.8552 9.74706 10.0298 9.61988C10.2043 9.4927 10.3404 9.31974 10.4228 9.12012L12.5 4.09082L14.5771 9.12012C14.6596 9.31974 14.7956 9.4927 14.9702 9.61988C15.1448 9.74706 15.3511 9.82352 15.5664 9.84082L20.9765 10.2773L16.8486 13.8379Z" fill="#FFD700"/>
</svg>
