<svg width="524" height="746" viewBox="0 0 524 746" fill="none" xmlns="http://www.w3.org/2000/svg">
<path d="M1.26371 453.184C-0.0947009 451.573 -0.297866 449.284 0.755704 447.46L257.7 2.49916C259.624 -0.833917 264.436 -0.833657 266.36 2.49961L523.225 447.426C524.288 449.267 524.071 451.579 522.683 453.189L362.809 638.775C361.207 640.634 361.191 643.38 362.771 645.257L447.53 746H72.5302L157.802 645.225C159.377 643.363 159.379 640.636 157.807 638.771L1.26371 453.184Z" fill="#33480D"/>
<path d="M1.26371 453.184C-0.0947009 451.573 -0.297866 449.284 0.755704 447.46L257.7 2.49916C259.624 -0.833917 264.436 -0.833657 266.36 2.49961L523.225 447.426C524.288 449.267 524.071 451.579 522.683 453.189L362.809 638.775C361.207 640.634 361.191 643.38 362.771 645.257L447.53 746H72.5302L157.802 645.225C159.377 643.363 159.379 640.636 157.807 638.771L1.26371 453.184Z" fill="url(#paint0_linear_36_521)" fill-opacity="0.5"/>
<defs>
<linearGradient id="paint0_linear_36_521" x1="262" y1="-5" x2="262" y2="746" gradientUnits="userSpaceOnUse">
<stop stop-opacity="0"/>
<stop offset="1"/>
</linearGradient>
</defs>
</svg>
