<svg width="1075" height="1527" viewBox="0 0 1075 1527" fill="none" xmlns="http://www.w3.org/2000/svg">
<path d="M5.04804 929.026C-0.382008 922.585 -1.19415 913.432 3.01699 906.136L520.238 10.0147C527.936 -3.32237 547.186 -3.32147 554.883 10.0164L1071.91 906.002C1076.16 913.364 1075.29 922.607 1069.74 929.048L750.443 1299.87C744.041 1307.31 743.977 1318.29 750.292 1325.79L919.495 1527H147.394L317.674 1325.66C323.972 1318.22 323.981 1307.31 317.694 1299.86L5.04804 929.026Z" fill="#33480D"/>
<path d="M5.04804 929.026C-0.382008 922.585 -1.19415 913.432 3.01699 906.136L520.238 10.0147C527.936 -3.32237 547.186 -3.32147 554.883 10.0164L1071.91 906.002C1076.16 913.364 1075.29 922.607 1069.74 929.048L750.443 1299.87C744.041 1307.31 743.977 1318.29 750.292 1325.79L919.495 1527H147.394L317.674 1325.66C323.972 1318.22 323.981 1307.31 317.694 1299.86L5.04804 929.026Z" fill="url(#paint0_linear_47_259)" fill-opacity="0.5"/>
<defs>
<linearGradient id="paint0_linear_47_259" x1="538" y1="452" x2="573" y2="1660.5" gradientUnits="userSpaceOnUse">
<stop stop-opacity="0"/>
<stop offset="1"/>
</linearGradient>
</defs>
</svg>
