<svg width="375" height="793" viewBox="0 0 375 793" fill="none" xmlns="http://www.w3.org/2000/svg">
<path d="M358.544 164.09C369.466 171.542 376 183.91 376 197.132L376 595.37C376 608.867 369.194 621.453 357.9 628.842L116.977 786.472C110.467 790.731 102.857 793 95.0771 793H-8.10623e-06L-8.10623e-06 0L95.3155 0C102.946 0 110.417 2.18239 116.847 6.28969L280 110.5L358.544 164.09Z" fill="#33480D"/>
<path d="M358.544 164.09C369.466 171.542 376 183.91 376 197.132L376 595.37C376 608.867 369.194 621.453 357.9 628.842L116.977 786.472C110.467 790.731 102.857 793 95.0771 793H-8.10623e-06L-8.10623e-06 0L95.3155 0C102.946 0 110.417 2.18239 116.847 6.28969L280 110.5L358.544 164.09Z" fill="url(#paint0_radial_14_141)" fill-opacity="0.5"/>
<defs>
<radialGradient id="paint0_radial_14_141" cx="0" cy="0" r="1" gradientUnits="userSpaceOnUse" gradientTransform="translate(257.5 431.5) rotate(158.778) scale(468.255 439.472)">
<stop stop-opacity="0"/>
<stop offset="1"/>
</radialGradient>
</defs>
</svg>
