<svg width="491" height="1152" viewBox="0 0 491 1152" fill="none" xmlns="http://www.w3.org/2000/svg">
<path d="M475.184 243.672C485.148 251.235 491 263.024 491 275.534V875.964C491 888.756 484.882 900.776 474.539 908.304L150.249 1144.34C143.41 1149.32 135.169 1152 126.71 1152H-1.2517e-06L-1.2517e-06 0L126.962 0C135.265 0 143.362 2.58391 150.131 7.39333L365.638 160.525L475.184 243.672Z" fill="#33480D"/>
<path d="M475.184 243.672C485.148 251.235 491 263.024 491 275.534V875.964C491 888.756 484.882 900.776 474.539 908.304L150.249 1144.34C143.41 1149.32 135.169 1152 126.71 1152H-1.2517e-06L-1.2517e-06 0L126.962 0C135.265 0 143.362 2.58391 150.131 7.39333L365.638 160.525L475.184 243.672Z" fill="url(#paint0_radial_38_179)" fill-opacity="0.5"/>
<defs>
<radialGradient id="paint0_radial_38_179" cx="0" cy="0" r="1" gradientUnits="userSpaceOnUse" gradientTransform="translate(336.257 626.845) rotate(156.636) scale(620.915 628.715)">
<stop stop-opacity="0"/>
<stop offset="1"/>
</radialGradient>
</defs>
</svg>
