<svg width="22" height="20" viewBox="0 0 22 20" fill="none" xmlns="http://www.w3.org/2000/svg">
<path d="M0 5C0 2.23858 2.23858 0 5 0H17C19.7614 0 22 2.23858 22 5V15C22 17.7614 19.7614 20 17 20H5C2.23858 20 0 17.7614 0 15V5Z" fill="white"/>
<path fill-rule="evenodd" clip-rule="evenodd" d="M6.36667 4.37714C6.60086 4.13596 6.91859 4.0003 7.25 4H12.25C12.3048 3.9999 12.359 4.0109 12.4096 4.03237C12.4602 4.05385 12.5062 4.08537 12.545 4.12514L15.8783 7.55371C15.917 7.59359 15.9476 7.64091 15.9685 7.69297C15.9894 7.74504 16.0001 7.80082 16 7.85714V14.7143C16 15.0553 15.8683 15.3823 15.6339 15.6234C15.3995 15.8645 15.0815 16 14.75 16H7.25C6.91848 16 6.60054 15.8645 6.36612 15.6234C6.1317 15.3823 6 15.0553 6 14.7143V5.28571C6 4.94457 6.13167 4.61714 6.36667 4.37714ZM9.29583 7.38571C9.40789 7.38571 9.51886 7.36301 9.62239 7.3189C9.72592 7.27479 9.81999 7.21014 9.89923 7.12864C9.97847 7.04713 10.0413 6.95038 10.0842 6.84389C10.1271 6.7374 10.1492 6.62326 10.1492 6.508C10.1492 6.39274 10.1271 6.2786 10.0842 6.17211C10.0413 6.06562 9.97847 5.96887 9.89923 5.88736C9.81999 5.80586 9.72592 5.74121 9.62239 5.6971C9.51886 5.65299 9.40789 5.63029 9.29583 5.63029C9.06951 5.63029 8.85247 5.72276 8.69244 5.88736C8.5324 6.05197 8.4425 6.27522 8.4425 6.508C8.4425 6.74078 8.5324 6.96403 8.69244 7.12864C8.85247 7.29324 9.06951 7.38571 9.29583 7.38571ZM7.56333 11.2857C7.56333 10.99 7.79583 10.75 8.08333 10.75H13.9167C14.0497 10.7575 14.1749 10.8171 14.2666 10.9166C14.3583 11.0161 14.4095 11.1478 14.4097 11.2849C14.4099 11.422 14.3591 11.5539 14.2678 11.6537C14.1764 11.7534 14.0514 11.8135 13.9183 11.8214H8.085C7.94679 11.8214 7.81423 11.765 7.71642 11.6646C7.61861 11.5641 7.56355 11.4279 7.56333 11.2857ZM7.56333 13.8571C7.56333 13.5614 7.79583 13.3214 8.08333 13.3214H11.4167C11.5497 13.329 11.6749 13.3886 11.7666 13.488C11.8583 13.5875 11.9095 13.7193 11.9097 13.8563C11.9099 13.9934 11.8591 14.1253 11.7678 14.2251C11.6764 14.3249 11.5514 14.3849 11.4183 14.3929H8.085C7.94679 14.3929 7.81423 14.3364 7.71642 14.236C7.61861 14.1356 7.56355 13.9993 7.56333 13.8571ZM9.29667 7.972C8.71333 7.972 8.18083 8.19743 7.77833 8.56857C7.53917 8.78886 7.72583 9.14286 8.04667 9.14286H10.545C10.8667 9.14286 11.0533 8.78886 10.8142 8.56857C10.3971 8.18356 9.85706 7.97104 9.29667 7.972Z" fill="#FFD700" fill-opacity="0.992157"/>
<path fill-rule="evenodd" clip-rule="evenodd" d="M6.36667 4.37714C6.60086 4.13596 6.91859 4.0003 7.25 4H12.25C12.3048 3.9999 12.359 4.0109 12.4096 4.03237C12.4602 4.05385 12.5062 4.08537 12.545 4.12514L15.8783 7.55371C15.917 7.59359 15.9476 7.64091 15.9685 7.69297C15.9894 7.74504 16.0001 7.80082 16 7.85714V14.7143C16 15.0553 15.8683 15.3823 15.6339 15.6234C15.3995 15.8645 15.0815 16 14.75 16H7.25C6.91848 16 6.60054 15.8645 6.36612 15.6234C6.1317 15.3823 6 15.0553 6 14.7143V5.28571C6 4.94457 6.13167 4.61714 6.36667 4.37714ZM9.29583 7.38571C9.40789 7.38571 9.51886 7.36301 9.62239 7.3189C9.72592 7.27479 9.81999 7.21014 9.89923 7.12864C9.97847 7.04713 10.0413 6.95038 10.0842 6.84389C10.1271 6.7374 10.1492 6.62326 10.1492 6.508C10.1492 6.39274 10.1271 6.2786 10.0842 6.17211C10.0413 6.06562 9.97847 5.96887 9.89923 5.88736C9.81999 5.80586 9.72592 5.74121 9.62239 5.6971C9.51886 5.65299 9.40789 5.63029 9.29583 5.63029C9.06951 5.63029 8.85247 5.72276 8.69244 5.88736C8.5324 6.05197 8.4425 6.27522 8.4425 6.508C8.4425 6.74078 8.5324 6.96403 8.69244 7.12864C8.85247 7.29324 9.06951 7.38571 9.29583 7.38571ZM7.56333 11.2857C7.56333 10.99 7.79583 10.75 8.08333 10.75H13.9167C14.0497 10.7575 14.1749 10.8171 14.2666 10.9166C14.3583 11.0161 14.4095 11.1478 14.4097 11.2849C14.4099 11.422 14.3591 11.5539 14.2678 11.6537C14.1764 11.7534 14.0514 11.8135 13.9183 11.8214H8.085C7.94679 11.8214 7.81423 11.765 7.71642 11.6646C7.61861 11.5641 7.56355 11.4279 7.56333 11.2857ZM7.56333 13.8571C7.56333 13.5614 7.79583 13.3214 8.08333 13.3214H11.4167C11.5497 13.329 11.6749 13.3886 11.7666 13.488C11.8583 13.5875 11.9095 13.7193 11.9097 13.8563C11.9099 13.9934 11.8591 14.1253 11.7678 14.2251C11.6764 14.3249 11.5514 14.3849 11.4183 14.3929H8.085C7.94679 14.3929 7.81423 14.3364 7.71642 14.236C7.61861 14.1356 7.56355 13.9993 7.56333 13.8571ZM9.29667 7.972C8.71333 7.972 8.18083 8.19743 7.77833 8.56857C7.53917 8.78886 7.72583 9.14286 8.04667 9.14286H10.545C10.8667 9.14286 11.0533 8.78886 10.8142 8.56857C10.3971 8.18356 9.85706 7.97104 9.29667 7.972Z" fill="url(#paint0_radial_35_12)"/>
<defs>
<radialGradient id="paint0_radial_35_12" cx="0" cy="0" r="1" gradientUnits="userSpaceOnUse" gradientTransform="translate(11 10) rotate(90) scale(9.5 7.91667)">
<stop stop-color="#FFD700" stop-opacity="0"/>
<stop offset="0.8" stop-color="#B09500"/>
</radialGradient>
</defs>
</svg>
