<svg width="18" height="14" viewBox="0 0 18 14" fill="none" xmlns="http://www.w3.org/2000/svg">
<path d="M5 2.1875V6.25H10.991L8.9332 4.1918C8.82094 4.07363 8.75928 3.91629 8.76137 3.75331C8.76345 3.59034 8.82912 3.43462 8.94437 3.31937C9.05962 3.20412 9.21534 3.13845 9.37831 3.13637C9.54129 3.13428 9.69863 3.19594 9.8168 3.3082L12.9418 6.4332C13.0589 6.5504 13.1247 6.70931 13.1247 6.875C13.1247 7.04069 13.0589 7.1996 12.9418 7.3168L9.8168 10.4418C9.69863 10.5541 9.54129 10.6157 9.37831 10.6136C9.21534 10.6115 9.05962 10.5459 8.94437 10.4306C8.82912 10.3154 8.76345 10.1597 8.76137 9.99669C8.75928 9.83371 8.82094 9.67637 8.9332 9.5582L10.991 7.5H5V11.5625C5.00062 12.1425 5.23129 12.6985 5.64139 13.1086C6.05149 13.5187 6.60753 13.7494 7.1875 13.75H15.3125C15.8925 13.7494 16.4485 13.5187 16.8586 13.1086C17.2687 12.6985 17.4994 12.1425 17.5 11.5625V2.1875C17.4994 1.60753 17.2687 1.05149 16.8586 0.641389C16.4485 0.231288 15.8925 0.000620401 15.3125 0H7.1875C6.60753 0.000620401 6.05149 0.231288 5.64139 0.641389C5.23129 1.05149 5.00062 1.60753 5 2.1875ZM0.625 6.25C0.45924 6.25 0.300268 6.31585 0.183058 6.43306C0.065848 6.55027 0 6.70924 0 6.875C0 7.04076 0.065848 7.19973 0.183058 7.31694C0.300268 7.43415 0.45924 7.5 0.625 7.5H5V6.25H0.625Z" fill="#FFD700"/>
<path d="M5 2.1875V6.25H10.991L8.9332 4.1918C8.82094 4.07363 8.75928 3.91629 8.76137 3.75331C8.76345 3.59034 8.82912 3.43462 8.94437 3.31937C9.05962 3.20412 9.21534 3.13845 9.37831 3.13637C9.54129 3.13428 9.69863 3.19594 9.8168 3.3082L12.9418 6.4332C13.0589 6.5504 13.1247 6.70931 13.1247 6.875C13.1247 7.04069 13.0589 7.1996 12.9418 7.3168L9.8168 10.4418C9.69863 10.5541 9.54129 10.6157 9.37831 10.6136C9.21534 10.6115 9.05962 10.5459 8.94437 10.4306C8.82912 10.3154 8.76345 10.1597 8.76137 9.99669C8.75928 9.83371 8.82094 9.67637 8.9332 9.5582L10.991 7.5H5V11.5625C5.00062 12.1425 5.23129 12.6985 5.64139 13.1086C6.05149 13.5187 6.60753 13.7494 7.1875 13.75H15.3125C15.8925 13.7494 16.4485 13.5187 16.8586 13.1086C17.2687 12.6985 17.4994 12.1425 17.5 11.5625V2.1875C17.4994 1.60753 17.2687 1.05149 16.8586 0.641389C16.4485 0.231288 15.8925 0.000620401 15.3125 0H7.1875C6.60753 0.000620401 6.05149 0.231288 5.64139 0.641389C5.23129 1.05149 5.00062 1.60753 5 2.1875ZM0.625 6.25C0.45924 6.25 0.300268 6.31585 0.183058 6.43306C0.065848 6.55027 0 6.70924 0 6.875C0 7.04076 0.065848 7.19973 0.183058 7.31694C0.300268 7.43415 0.45924 7.5 0.625 7.5H5V6.25H0.625Z" fill="url(#paint0_radial_438_165)"/>
<defs>
<radialGradient id="paint0_radial_438_165" cx="0" cy="0" r="1" gradientUnits="userSpaceOnUse" gradientTransform="translate(11.0833 6.875) rotate(90) scale(15.3333 19.5152)">
<stop stop-color="#FFD700" stop-opacity="0"/>
<stop offset="0.6" stop-color="#B09500"/>
</radialGradient>
</defs>
</svg>
