<svg width="30" height="30" viewBox="0 0 30 30" fill="none" xmlns="http://www.w3.org/2000/svg">
<path d="M21.1765 30V24.6981H15.8824V21.1635H21.1765V15.8616H24.7059V21.1635H30V24.6981H24.7059V30H21.1765ZM0 24.7423V21.2077H12.4853C12.3971 21.8262 12.3606 22.4153 12.3759 22.975C12.3912 23.5346 12.4424 24.1237 12.5294 24.7423H0ZM0 17.673V14.1384H17.0294C16.3529 14.6097 15.7429 15.1399 15.1994 15.729C14.6559 16.3181 14.1776 16.9661 13.7647 17.673H0ZM0 10.6038V7.06922H26.4706V10.6038H0ZM0 3.53461V0H26.4706V3.53461H0Z" fill="#FFD700"/>
<path d="M21.1765 30V24.6981H15.8824V21.1635H21.1765V15.8616H24.7059V21.1635H30V24.6981H24.7059V30H21.1765ZM0 24.7423V21.2077H12.4853C12.3971 21.8262 12.3606 22.4153 12.3759 22.975C12.3912 23.5346 12.4424 24.1237 12.5294 24.7423H0ZM0 17.673V14.1384H17.0294C16.3529 14.6097 15.7429 15.1399 15.1994 15.729C14.6559 16.3181 14.1776 16.9661 13.7647 17.673H0ZM0 10.6038V7.06922H26.4706V10.6038H0ZM0 3.53461V0H26.4706V3.53461H0Z" fill="url(#paint0_radial_2_3)"/>
<defs>
<radialGradient id="paint0_radial_2_3" cx="0" cy="0" r="1" gradientUnits="userSpaceOnUse" gradientTransform="translate(13.25 12.25) rotate(-137.603) scale(18.0451)">
<stop stop-color="#F5EF4D" stop-opacity="0"/>
<stop offset="0.815" stop-color="#B09500"/>
</radialGradient>
</defs>
</svg>
