<svg width="30" height="30" viewBox="0 0 30 30" fill="none" xmlns="http://www.w3.org/2000/svg">
<path d="M21 0H9C4.0365 0 0 4.0365 0 9V28.5C0 28.8978 0.158035 29.2794 0.43934 29.5607C0.720644 29.842 1.10218 30 1.5 30H21C25.9635 30 30 25.9635 30 21V9C30 4.0365 25.9635 0 21 0ZM18 19.5H7.5V16.5H18V19.5ZM22.5 13.5H7.5V10.5H22.5V13.5Z" fill="#FFD700"/>
<path d="M21 0H9C4.0365 0 0 4.0365 0 9V28.5C0 28.8978 0.158035 29.2794 0.43934 29.5607C0.720644 29.842 1.10218 30 1.5 30H21C25.9635 30 30 25.9635 30 21V9C30 4.0365 25.9635 0 21 0ZM18 19.5H7.5V16.5H18V19.5ZM22.5 13.5H7.5V10.5H22.5V13.5Z" fill="url(#paint0_radial_2_10)"/>
<defs>
<radialGradient id="paint0_radial_2_10" cx="0" cy="0" r="1" gradientUnits="userSpaceOnUse" gradientTransform="translate(15 15) rotate(135) scale(21.2132)">
<stop stop-color="#F5EF4D" stop-opacity="0"/>
<stop offset="0.735" stop-color="#B09500"/>
</radialGradient>
</defs>
</svg>
