<svg width="22" height="20" viewBox="0 0 22 20" fill="none" xmlns="http://www.w3.org/2000/svg">
<path d="M0 5C0 2.23858 2.23858 0 5 0H17C19.7614 0 22 2.23858 22 5V15C22 17.7614 19.7614 20 17 20H5C2.23858 20 0 17.7614 0 15V5Z" fill="white"/>
<path d="M16.6667 9.83333C16.6667 13.0551 14.0551 15.6667 10.8333 15.6667C7.61158 15.6667 5 13.0551 5 9.83333C5 6.61158 7.61158 4 10.8333 4C14.0551 4 16.6667 6.61158 16.6667 9.83333Z" fill="#FFD700"/>
<path d="M16.6667 9.83333C16.6667 13.0551 14.0551 15.6667 10.8333 15.6667C7.61158 15.6667 5 13.0551 5 9.83333C5 6.61158 7.61158 4 10.8333 4C14.0551 4 16.6667 6.61158 16.6667 9.83333Z" fill="url(#paint0_radial_35_10)"/>
<path d="M10.8333 8.08333C11.1427 8.08333 11.4395 7.96042 11.6583 7.74162C11.8771 7.52283 12 7.22609 12 6.91667C12 6.60725 11.8771 6.3105 11.6583 6.09171C11.4395 5.87292 11.1427 5.75 10.8333 5.75C10.5239 5.75 10.2272 5.87292 10.0084 6.09171C9.78958 6.3105 9.66666 6.60725 9.66666 6.91667C9.66666 7.22609 9.78958 7.52283 10.0084 7.74162C10.2272 7.96042 10.5239 8.08333 10.8333 8.08333ZM7.50425 8.26417C7.39829 8.22304 7.28048 8.22476 7.17577 8.26897C7.07106 8.31317 6.98766 8.3964 6.94323 8.50102C6.89881 8.60564 6.89684 8.72344 6.93775 8.82948C6.97866 8.93553 7.05923 9.02149 7.16241 9.06917L7.16358 9.06975L7.16475 9.07033L7.17058 9.07267L7.18925 9.08083C7.29956 9.12685 7.41081 9.17061 7.52291 9.21208C7.74458 9.29667 8.05608 9.40925 8.41366 9.52125C8.99 9.70325 9.718 9.89458 10.3958 9.95758V10.6809C10.3958 10.9317 10.3235 11.1785 10.1876 11.3902L8.71525 13.6798C8.68414 13.7282 8.66287 13.7822 8.65263 13.8387C8.6424 13.8953 8.6434 13.9533 8.65559 14.0095C8.66778 14.0656 8.69091 14.1189 8.72366 14.1661C8.75642 14.2133 8.79816 14.2536 8.8465 14.2848C8.89483 14.3159 8.94882 14.3371 9.00538 14.3474C9.06194 14.3576 9.11996 14.3566 9.17614 14.3444C9.23231 14.3322 9.28553 14.3091 9.33276 14.2763C9.37999 14.2436 9.42031 14.2018 9.45141 14.1535L10.8339 12.0033L12.2152 14.1535C12.2463 14.2018 12.2867 14.2436 12.3339 14.2763C12.3811 14.3091 12.4343 14.3322 12.4905 14.3444C12.5467 14.3566 12.6047 14.3576 12.6613 14.3474C12.7178 14.3371 12.7718 14.3159 12.8202 14.2848C12.8685 14.2536 12.9102 14.2133 12.943 14.1661C12.9757 14.1189 12.9989 14.0656 13.0111 14.0095C13.0233 13.9533 13.0243 13.8953 13.014 13.8387C13.0038 13.7822 12.9825 13.7282 12.9514 13.6798L11.4791 11.3902C11.343 11.1785 11.2707 10.932 11.2708 10.6803V9.95758C11.9487 9.89458 12.6767 9.70325 13.2536 9.52125C13.6672 9.39075 14.0755 9.24382 14.4774 9.08083L14.4967 9.07267L14.5025 9.07033L14.5037 9.06975C14.6086 9.02324 14.6911 8.93735 14.7332 8.83061C14.7754 8.72387 14.774 8.60482 14.7292 8.49913C14.6845 8.39344 14.5999 8.30958 14.4939 8.26562C14.3879 8.22167 14.2688 8.22115 14.1624 8.26417L14.1583 8.26592L14.1426 8.27233L14.0784 8.29858C13.7209 8.44154 13.3582 8.57113 12.9911 8.68708C12.3039 8.90292 11.4814 9.10417 10.8333 9.10417C10.1852 9.10417 9.36333 8.90292 8.67616 8.68708C8.28702 8.56404 7.90289 8.42569 7.52466 8.27233L7.50833 8.26592L7.50425 8.26417Z" fill="white"/>
<defs>
<radialGradient id="paint0_radial_35_10" cx="0" cy="0" r="1" gradientUnits="userSpaceOnUse" gradientTransform="translate(10.8333 9.83333) rotate(90) scale(5.83333)">
<stop stop-color="#B09500" stop-opacity="0"/>
<stop offset="1" stop-color="#B09500"/>
</radialGradient>
</defs>
</svg>
