<svg width="12" height="12" viewBox="0 0 12 12" fill="none" xmlns="http://www.w3.org/2000/svg">
<path fill-rule="evenodd" clip-rule="evenodd" d="M5.96772 0.0472428C6.03181 0.0842994 6.0857 0.141201 6.12336 0.211581C6.16102 0.281962 6.18096 0.363045 6.18097 0.445761V11.1442C6.18097 11.227 6.16099 11.3082 6.12327 11.3786C6.08555 11.449 6.03159 11.5059 5.96742 11.5429C5.90325 11.58 5.83141 11.5956 5.75996 11.5882C5.68851 11.5808 5.62026 11.5505 5.56287 11.5008L2.57514 8.91538H1.15893C0.851563 8.91538 0.556785 8.77449 0.339443 8.52369C0.122101 8.2729 0 7.93275 0 7.57807L0 4.01192C0 3.65724 0.122101 3.31709 0.339443 3.0663C0.556785 2.8155 0.851563 2.67461 1.15893 2.67461H2.57514L5.56287 0.0891452C5.62031 0.0394368 5.68862 0.00918419 5.76013 0.0017826C5.83165 -0.00561898 5.90353 0.0101233 5.96772 0.0472428ZM5.40834 1.3373L2.93596 3.47699C2.86909 3.53486 2.78776 3.56615 2.70417 3.56615H1.15893C1.05648 3.56615 0.958216 3.61311 0.885768 3.69671C0.813321 3.78031 0.772621 3.89369 0.772621 4.01192V7.57807C0.772621 7.6963 0.813321 7.80968 0.885768 7.89328C0.958216 7.97688 1.05648 8.02384 1.15893 8.02384H2.70417C2.78776 8.02384 2.86909 8.05513 2.93596 8.113L5.40834 10.2527V1.3373ZM11.4765 3.69631C11.5125 3.73772 11.541 3.78691 11.5605 3.84107C11.58 3.89522 11.59 3.95328 11.59 4.01192C11.59 4.07055 11.58 4.12861 11.5605 4.18277C11.541 4.23692 11.5125 4.28611 11.4765 4.32752L10.204 5.795L11.4765 7.26247C11.549 7.34617 11.5898 7.4597 11.5898 7.57807C11.5898 7.69645 11.549 7.80998 11.4765 7.89368C11.404 7.97738 11.3056 8.02441 11.203 8.02441C11.1004 8.02441 11.002 7.97738 10.9295 7.89368L9.65776 6.42531L8.38602 7.89368C8.31349 7.97738 8.2151 8.02441 8.11252 8.02441C8.00993 8.02441 7.91155 7.97738 7.83901 7.89368C7.76647 7.80998 7.72572 7.69645 7.72572 7.57807C7.72572 7.4597 7.76647 7.34617 7.83901 7.26247L9.11152 5.795L7.83901 4.32752C7.76647 4.24382 7.72572 4.13029 7.72572 4.01192C7.72572 3.89354 7.76647 3.78002 7.83901 3.69631C7.91155 3.61261 8.00993 3.56558 8.11252 3.56558C8.2151 3.56558 8.31349 3.61261 8.38602 3.69631L9.65776 5.16468L10.9295 3.69631C10.9654 3.6548 11.008 3.62186 11.0549 3.59939C11.1019 3.57692 11.1522 3.56535 11.203 3.56535C11.2538 3.56535 11.3041 3.57692 11.3511 3.59939C11.398 3.62186 11.4406 3.6548 11.4765 3.69631Z" fill="#556B2F"/>
</svg>
