<svg width="22" height="20" viewBox="0 0 22 20" fill="none" xmlns="http://www.w3.org/2000/svg">
<rect width="22" height="20" rx="5" fill="white"/>
<path fill-rule="evenodd" clip-rule="evenodd" d="M11 4C7.6862 4 5 6.6862 5 10C5 11.134 5.315 12.196 5.8628 13.1008L5.3276 14.92C5.29687 15.0244 5.29485 15.1352 5.32175 15.2407C5.34864 15.3462 5.40347 15.4426 5.48046 15.5195C5.55744 15.5965 5.65375 15.6514 5.75925 15.6782C5.86475 15.7051 5.97555 15.7031 6.08 15.6724L7.8992 15.1372C8.83441 15.703 9.90693 16.0015 11 16C14.3138 16 17 13.3138 17 10C17 6.6862 14.3138 4 11 4ZM9.6428 11.3578C10.8566 12.571 12.0152 12.7312 12.4244 12.7462C13.0466 12.769 13.6526 12.2938 13.8884 11.7424C13.9182 11.6738 13.929 11.5985 13.9197 11.5243C13.9104 11.4501 13.8814 11.3797 13.8356 11.3206C13.5068 10.9006 13.0622 10.5988 12.6278 10.2988C12.5371 10.2361 12.4256 10.2109 12.3168 10.2286C12.208 10.2463 12.1102 10.3054 12.044 10.3936L11.684 10.9426C11.6651 10.9721 11.6356 10.9933 11.6016 11.0018C11.5675 11.0102 11.5316 11.0054 11.501 10.9882C11.2568 10.8484 10.901 10.6108 10.6454 10.3552C10.3898 10.0996 10.1666 9.76 10.0412 9.5314C10.0257 9.50235 10.0212 9.46866 10.0285 9.43656C10.0359 9.40445 10.0547 9.37612 10.0814 9.3568L10.6358 8.9452C10.7149 8.8764 10.766 8.78092 10.7793 8.67692C10.7925 8.57291 10.7671 8.46766 10.7078 8.3812C10.439 7.9876 10.1258 7.4872 9.6716 7.1554C9.61298 7.11292 9.54432 7.08643 9.47236 7.07854C9.4004 7.07065 9.32763 7.08163 9.2612 7.1104C8.7092 7.3468 8.2316 7.9528 8.2544 8.5762C8.2694 8.9854 8.4296 10.144 9.6428 11.3578Z" fill="#FFD700"/>
<path fill-rule="evenodd" clip-rule="evenodd" d="M11 4C7.6862 4 5 6.6862 5 10C5 11.134 5.315 12.196 5.8628 13.1008L5.3276 14.92C5.29687 15.0244 5.29485 15.1352 5.32175 15.2407C5.34864 15.3462 5.40347 15.4426 5.48046 15.5195C5.55744 15.5965 5.65375 15.6514 5.75925 15.6782C5.86475 15.7051 5.97555 15.7031 6.08 15.6724L7.8992 15.1372C8.83441 15.703 9.90693 16.0015 11 16C14.3138 16 17 13.3138 17 10C17 6.6862 14.3138 4 11 4ZM9.6428 11.3578C10.8566 12.571 12.0152 12.7312 12.4244 12.7462C13.0466 12.769 13.6526 12.2938 13.8884 11.7424C13.9182 11.6738 13.929 11.5985 13.9197 11.5243C13.9104 11.4501 13.8814 11.3797 13.8356 11.3206C13.5068 10.9006 13.0622 10.5988 12.6278 10.2988C12.5371 10.2361 12.4256 10.2109 12.3168 10.2286C12.208 10.2463 12.1102 10.3054 12.044 10.3936L11.684 10.9426C11.6651 10.9721 11.6356 10.9933 11.6016 11.0018C11.5675 11.0102 11.5316 11.0054 11.501 10.9882C11.2568 10.8484 10.901 10.6108 10.6454 10.3552C10.3898 10.0996 10.1666 9.76 10.0412 9.5314C10.0257 9.50235 10.0212 9.46866 10.0285 9.43656C10.0359 9.40445 10.0547 9.37612 10.0814 9.3568L10.6358 8.9452C10.7149 8.8764 10.766 8.78092 10.7793 8.67692C10.7925 8.57291 10.7671 8.46766 10.7078 8.3812C10.439 7.9876 10.1258 7.4872 9.6716 7.1554C9.61298 7.11292 9.54432 7.08643 9.47236 7.07854C9.4004 7.07065 9.32763 7.08163 9.2612 7.1104C8.7092 7.3468 8.2316 7.9528 8.2544 8.5762C8.2694 8.9854 8.4296 10.144 9.6428 11.3578Z" fill="url(#paint0_radial_29_42)"/>
<defs>
<radialGradient id="paint0_radial_29_42" cx="0" cy="0" r="1" gradientUnits="userSpaceOnUse" gradientTransform="translate(11 10) rotate(90) scale(12.72)">
<stop stop-color="#FFD700" stop-opacity="0"/>
<stop offset="0.6" stop-color="#B09500"/>
</radialGradient>
</defs>
</svg>
