<svg width="22" height="20" viewBox="0 0 22 20" fill="none" xmlns="http://www.w3.org/2000/svg">
<path d="M0 5C0 2.23858 2.23858 0 5 0H17C19.7614 0 22 2.23858 22 5V15C22 17.7614 19.7614 20 17 20H5C2.23858 20 0 17.7614 0 15V5Z" fill="white"/>
<path d="M8.17316 4.19771C8.64745 4.35019 9.09865 4.56098 9.51525 4.82468C10.1036 4.68197 10.7086 4.61028 11.3159 4.6113C11.943 4.6113 12.5481 4.68562 13.1152 4.82408C13.5316 4.56063 13.9826 4.35005 14.4567 4.19771C14.8969 4.05565 15.524 3.82548 15.8966 4.21689C16.1493 4.48302 16.2124 4.92898 16.2573 5.26944C16.3078 5.64947 16.3198 6.14458 16.1872 6.63609C16.6943 7.25767 17 7.99914 17 8.80713C17 10.0311 16.3015 11.0939 15.2676 11.8299C14.77 12.1797 14.2182 12.4539 13.6318 12.6427C13.767 12.9364 13.8421 13.2613 13.8421 13.6024V15.4006C13.8421 15.5596 13.7756 15.712 13.6572 15.8244C13.5387 15.9368 13.3781 16 13.2106 16H9.42114C9.25364 16 9.093 15.9368 8.97456 15.8244C8.85611 15.712 8.78957 15.5596 8.78957 15.4006V14.8066C8.18642 14.8767 7.68053 14.8144 7.25043 14.6411C6.80075 14.4601 6.4875 14.1796 6.25192 13.9111C6.02834 13.6569 5.78456 13.0839 5.43214 12.9724C5.35343 12.9475 5.28065 12.9082 5.21797 12.8566C5.15528 12.8051 5.10391 12.7423 5.06678 12.6719C4.99181 12.5297 4.97942 12.365 5.03236 12.2142C5.08529 12.0633 5.1992 11.9386 5.34903 11.8674C5.49886 11.7962 5.67233 11.7845 5.83129 11.8347C6.25192 11.9678 6.52602 12.2555 6.7136 12.4869C7.01675 12.8585 7.26306 13.344 7.74306 13.5376C7.94074 13.6174 8.23063 13.6695 8.6841 13.6108L8.78957 13.5904C8.79078 13.2642 8.86235 12.9417 8.99989 12.6427C8.41353 12.4539 7.86167 12.1797 7.36412 11.8299C6.33023 11.0939 5.63172 10.0317 5.63172 8.80713C5.63172 8.00033 5.93677 7.25947 6.44265 6.63849C6.31002 6.14697 6.32139 5.65067 6.37192 5.27004L6.37508 5.24727C6.42118 4.89841 6.47486 4.48782 6.73254 4.21689C7.10517 3.82548 7.73359 4.05565 8.17316 4.19771Z" fill="#FFD700"/>
<path d="M8.17316 4.19771C8.64745 4.35019 9.09865 4.56098 9.51525 4.82468C10.1036 4.68197 10.7086 4.61028 11.3159 4.6113C11.943 4.6113 12.5481 4.68562 13.1152 4.82408C13.5316 4.56063 13.9826 4.35005 14.4567 4.19771C14.8969 4.05565 15.524 3.82548 15.8966 4.21689C16.1493 4.48302 16.2124 4.92898 16.2573 5.26944C16.3078 5.64947 16.3198 6.14458 16.1872 6.63609C16.6943 7.25767 17 7.99914 17 8.80713C17 10.0311 16.3015 11.0939 15.2676 11.8299C14.77 12.1797 14.2182 12.4539 13.6318 12.6427C13.767 12.9364 13.8421 13.2613 13.8421 13.6024V15.4006C13.8421 15.5596 13.7756 15.712 13.6572 15.8244C13.5387 15.9368 13.3781 16 13.2106 16H9.42114C9.25364 16 9.093 15.9368 8.97456 15.8244C8.85611 15.712 8.78957 15.5596 8.78957 15.4006V14.8066C8.18642 14.8767 7.68053 14.8144 7.25043 14.6411C6.80075 14.4601 6.4875 14.1796 6.25192 13.9111C6.02834 13.6569 5.78456 13.0839 5.43214 12.9724C5.35343 12.9475 5.28065 12.9082 5.21797 12.8566C5.15528 12.8051 5.10391 12.7423 5.06678 12.6719C4.99181 12.5297 4.97942 12.365 5.03236 12.2142C5.08529 12.0633 5.1992 11.9386 5.34903 11.8674C5.49886 11.7962 5.67233 11.7845 5.83129 11.8347C6.25192 11.9678 6.52602 12.2555 6.7136 12.4869C7.01675 12.8585 7.26306 13.344 7.74306 13.5376C7.94074 13.6174 8.23063 13.6695 8.6841 13.6108L8.78957 13.5904C8.79078 13.2642 8.86235 12.9417 8.99989 12.6427C8.41353 12.4539 7.86167 12.1797 7.36412 11.8299C6.33023 11.0939 5.63172 10.0317 5.63172 8.80713C5.63172 8.00033 5.93677 7.25947 6.44265 6.63849C6.31002 6.14697 6.32139 5.65067 6.37192 5.27004L6.37508 5.24727C6.42118 4.89841 6.47486 4.48782 6.73254 4.21689C7.10517 3.82548 7.73359 4.05565 8.17316 4.19771Z" fill="url(#paint0_radial_35_2)"/>
<defs>
<radialGradient id="paint0_radial_35_2" cx="0" cy="0" r="1" gradientUnits="userSpaceOnUse" gradientTransform="translate(11.316 9.76618) rotate(87.258) scale(10.5616 10.5592)">
<stop stop-color="#FFD700" stop-opacity="0"/>
<stop offset="0.6" stop-color="#B09500"/>
</radialGradient>
</defs>
</svg>
