<svg width="22" height="20" viewBox="0 0 22 20" fill="none" xmlns="http://www.w3.org/2000/svg">
<path d="M0 5C0 2.23858 2.23858 0 5 0H17C19.7614 0 22 2.23858 22 5V15C22 17.7614 19.7614 20 17 20H5C2.23858 20 0 17.7614 0 15V5Z" fill="white"/>
<path d="M10.8333 15.6667C14.0551 15.6667 16.6667 13.0551 16.6667 9.83333C16.6667 9.56325 16.2618 9.51833 16.1224 9.74992C15.8251 10.2424 15.4195 10.6609 14.9365 10.9734C14.4535 11.286 13.9057 11.4846 13.3346 11.5541C12.7635 11.6236 12.184 11.5623 11.6401 11.3747C11.0962 11.1871 10.6022 10.8782 10.1953 10.4713C9.78851 10.0645 9.4796 9.57045 9.29201 9.02656C9.10441 8.48267 9.04304 7.90322 9.11256 7.3321C9.18207 6.76098 9.38064 6.21317 9.69323 5.73016C10.0058 5.24715 10.4242 4.84161 10.9168 4.54425C11.1483 4.40425 11.1034 4 10.8333 4C7.61158 4 5 6.61158 5 9.83333C5 13.0551 7.61158 15.6667 10.8333 15.6667Z" fill="#FFD700"/>
<path d="M10.8333 15.6667C14.0551 15.6667 16.6667 13.0551 16.6667 9.83333C16.6667 9.56325 16.2618 9.51833 16.1224 9.74992C15.8251 10.2424 15.4195 10.6609 14.9365 10.9734C14.4535 11.286 13.9057 11.4846 13.3346 11.5541C12.7635 11.6236 12.184 11.5623 11.6401 11.3747C11.0962 11.1871 10.6022 10.8782 10.1953 10.4713C9.78851 10.0645 9.4796 9.57045 9.29201 9.02656C9.10441 8.48267 9.04304 7.90322 9.11256 7.3321C9.18207 6.76098 9.38064 6.21317 9.69323 5.73016C10.0058 5.24715 10.4242 4.84161 10.9168 4.54425C11.1483 4.40425 11.1034 4 10.8333 4C7.61158 4 5 6.61158 5 9.83333C5 13.0551 7.61158 15.6667 10.8333 15.6667Z" fill="url(#paint0_radial_30_75)"/>
<defs>
<radialGradient id="paint0_radial_30_75" cx="0" cy="0" r="1" gradientUnits="userSpaceOnUse" gradientTransform="translate(11.3334 9.33325) rotate(93.3665) scale(8.51469)">
<stop stop-color="#FFD700" stop-opacity="0"/>
<stop offset="0.75" stop-color="#B09500"/>
</radialGradient>
</defs>
</svg>
