<svg width="22" height="20" viewBox="0 0 22 20" fill="none" xmlns="http://www.w3.org/2000/svg">
<path d="M0 5C0 2.23858 2.23858 0 5 0H17C19.7614 0 22 2.23858 22 5V15C22 17.7614 19.7614 20 17 20H5C2.23858 20 0 17.7614 0 15V5Z" fill="white"/>
<path d="M5 8.66675V11.0001C5 12.6503 5 13.4752 5.51275 13.9879C5.63933 14.1145 5.78517 14.2096 5.95783 14.2819C5.95393 14.2559 5.95024 14.2298 5.94675 14.2037C5.875 13.6682 5.875 13.0003 5.875 12.2245V7.44291C5.875 6.66708 5.875 5.99858 5.94675 5.46366L5.95842 5.3855C5.79173 5.45278 5.6402 5.55274 5.51275 5.6795C5 6.19225 5 7.01708 5 8.66675ZM16.6667 8.66675V11.0001C16.6667 12.6503 16.6667 13.4752 16.1539 13.9879C16.0273 14.1145 15.8815 14.2096 15.7088 14.2819L15.7199 14.2037C15.7917 13.6682 15.7917 13.0003 15.7917 12.2245V7.44291C15.7917 6.66708 15.7917 5.99858 15.7199 5.46366C15.7162 5.43758 15.7123 5.41152 15.7083 5.3855C15.8815 5.45725 16.0273 5.55291 16.1539 5.6795C16.6667 6.19225 16.6667 7.01708 16.6667 8.66675Z" fill="#FFD700"/>
<path d="M5 8.66675V11.0001C5 12.6503 5 13.4752 5.51275 13.9879C5.63933 14.1145 5.78517 14.2096 5.95783 14.2819C5.95393 14.2559 5.95024 14.2298 5.94675 14.2037C5.875 13.6682 5.875 13.0003 5.875 12.2245V7.44291C5.875 6.66708 5.875 5.99858 5.94675 5.46366L5.95842 5.3855C5.79173 5.45278 5.6402 5.55274 5.51275 5.6795C5 6.19225 5 7.01708 5 8.66675ZM16.6667 8.66675V11.0001C16.6667 12.6503 16.6667 13.4752 16.1539 13.9879C16.0273 14.1145 15.8815 14.2096 15.7088 14.2819L15.7199 14.2037C15.7917 13.6682 15.7917 13.0003 15.7917 12.2245V7.44291C15.7917 6.66708 15.7917 5.99858 15.7199 5.46366C15.7162 5.43758 15.7123 5.41152 15.7083 5.3855C15.8815 5.45725 16.0273 5.55291 16.1539 5.6795C16.6667 6.19225 16.6667 7.01708 16.6667 8.66675Z" fill="url(#paint0_radial_35_16)"/>
<path fill-rule="evenodd" clip-rule="evenodd" d="M7.26275 4.51275C6.75 5.02492 6.75 5.85033 6.75 7.5V12.1667C6.75 13.8163 6.75 14.6418 7.26275 15.1539C7.77492 15.6667 8.60033 15.6667 10.25 15.6667H11.4167C13.0663 15.6667 13.8918 15.6667 14.4039 15.1539C14.9167 14.6418 14.9167 13.8163 14.9167 12.1667V7.5C14.9167 5.85033 14.9167 5.02492 14.4039 4.51275C13.8918 4 13.0663 4 11.4167 4H10.25C8.60033 4 7.77492 4 7.26275 4.51275ZM8.64583 12.75C8.64583 12.634 8.69193 12.5227 8.77397 12.4406C8.85602 12.3586 8.9673 12.3125 9.08333 12.3125H10.8333C10.9494 12.3125 11.0606 12.3586 11.1427 12.4406C11.2247 12.5227 11.2708 12.634 11.2708 12.75C11.2708 12.866 11.2247 12.9773 11.1427 13.0594C11.0606 13.1414 10.9494 13.1875 10.8333 13.1875H9.08333C8.9673 13.1875 8.85602 13.1414 8.77397 13.0594C8.69193 12.9773 8.64583 12.866 8.64583 12.75ZM9.08333 9.97917C8.9673 9.97917 8.85602 10.0253 8.77397 10.1073C8.69193 10.1894 8.64583 10.3006 8.64583 10.4167C8.64583 10.5327 8.69193 10.644 8.77397 10.726C8.85602 10.8081 8.9673 10.8542 9.08333 10.8542H12.5833C12.6994 10.8542 12.8106 10.8081 12.8927 10.726C12.9747 10.644 13.0208 10.5327 13.0208 10.4167C13.0208 10.3006 12.9747 10.1894 12.8927 10.1073C12.8106 10.0253 12.6994 9.97917 12.5833 9.97917H9.08333ZM8.64583 8.08333C8.64583 7.9673 8.69193 7.85602 8.77397 7.77397C8.85602 7.69193 8.9673 7.64583 9.08333 7.64583H12.5833C12.6994 7.64583 12.8106 7.69193 12.8927 7.77397C12.9747 7.85602 13.0208 7.9673 13.0208 8.08333C13.0208 8.19937 12.9747 8.31065 12.8927 8.39269C12.8106 8.47474 12.6994 8.52083 12.5833 8.52083H9.08333C8.9673 8.52083 8.85602 8.47474 8.77397 8.39269C8.69193 8.31065 8.64583 8.19937 8.64583 8.08333Z" fill="#FFD700"/>
<path fill-rule="evenodd" clip-rule="evenodd" d="M7.26275 4.51275C6.75 5.02492 6.75 5.85033 6.75 7.5V12.1667C6.75 13.8163 6.75 14.6418 7.26275 15.1539C7.77492 15.6667 8.60033 15.6667 10.25 15.6667H11.4167C13.0663 15.6667 13.8918 15.6667 14.4039 15.1539C14.9167 14.6418 14.9167 13.8163 14.9167 12.1667V7.5C14.9167 5.85033 14.9167 5.02492 14.4039 4.51275C13.8918 4 13.0663 4 11.4167 4H10.25C8.60033 4 7.77492 4 7.26275 4.51275ZM8.64583 12.75C8.64583 12.634 8.69193 12.5227 8.77397 12.4406C8.85602 12.3586 8.9673 12.3125 9.08333 12.3125H10.8333C10.9494 12.3125 11.0606 12.3586 11.1427 12.4406C11.2247 12.5227 11.2708 12.634 11.2708 12.75C11.2708 12.866 11.2247 12.9773 11.1427 13.0594C11.0606 13.1414 10.9494 13.1875 10.8333 13.1875H9.08333C8.9673 13.1875 8.85602 13.1414 8.77397 13.0594C8.69193 12.9773 8.64583 12.866 8.64583 12.75ZM9.08333 9.97917C8.9673 9.97917 8.85602 10.0253 8.77397 10.1073C8.69193 10.1894 8.64583 10.3006 8.64583 10.4167C8.64583 10.5327 8.69193 10.644 8.77397 10.726C8.85602 10.8081 8.9673 10.8542 9.08333 10.8542H12.5833C12.6994 10.8542 12.8106 10.8081 12.8927 10.726C12.9747 10.644 13.0208 10.5327 13.0208 10.4167C13.0208 10.3006 12.9747 10.1894 12.8927 10.1073C12.8106 10.0253 12.6994 9.97917 12.5833 9.97917H9.08333ZM8.64583 8.08333C8.64583 7.9673 8.69193 7.85602 8.77397 7.77397C8.85602 7.69193 8.9673 7.64583 9.08333 7.64583H12.5833C12.6994 7.64583 12.8106 7.69193 12.8927 7.77397C12.9747 7.85602 13.0208 7.9673 13.0208 8.08333C13.0208 8.19937 12.9747 8.31065 12.8927 8.39269C12.8106 8.47474 12.6994 8.52083 12.5833 8.52083H9.08333C8.9673 8.52083 8.85602 8.47474 8.77397 8.39269C8.69193 8.31065 8.64583 8.19937 8.64583 8.08333Z" fill="url(#paint1_radial_35_16)"/>
<defs>
<radialGradient id="paint0_radial_35_16" cx="0" cy="0" r="1" gradientUnits="userSpaceOnUse" gradientTransform="translate(10.8333 9.83371) rotate(89.1449) scale(11.1675 14.645)">
<stop stop-color="#B09500" stop-opacity="0"/>
<stop offset="0.535" stop-color="#B09500"/>
</radialGradient>
<radialGradient id="paint1_radial_35_16" cx="0" cy="0" r="1" gradientUnits="userSpaceOnUse" gradientTransform="translate(10.8333 9.83333) rotate(89.1449) scale(11.1679 7.81754)">
<stop stop-color="#FFD700" stop-opacity="0"/>
<stop offset="0.72" stop-color="#B09500"/>
</radialGradient>
</defs>
</svg>
