<svg width="22" height="20" viewBox="0 0 22 20" fill="none" xmlns="http://www.w3.org/2000/svg">
<path d="M0 5C0 2.23858 2.23858 0 5 0H17C19.7614 0 22 2.23858 22 5V15C22 17.7614 19.7614 20 17 20H5C2.23858 20 0 17.7614 0 15V5Z" fill="white"/>
<path fill-rule="evenodd" clip-rule="evenodd" d="M7.57164 4C6.88977 4 6.23581 4.2708 5.75356 4.75287C5.27132 5.23493 5.00026 5.88878 5 6.57065V13.4284C5 14.1104 5.27094 14.7645 5.75322 15.2468C6.23549 15.7291 6.8896 16 7.57164 16H14.4293C15.1112 15.9997 15.7651 15.7287 16.2471 15.2464C16.7292 14.7642 17 14.1102 17 13.4284V6.57065C16.9997 5.88895 16.7288 5.23525 16.2468 4.75322C15.7647 4.27118 15.111 4.00026 14.4293 4H7.57164ZM15.169 6.5746C15.169 6.77104 15.091 6.95944 14.9521 7.09834C14.8132 7.23725 14.6248 7.31528 14.4284 7.31528C14.2319 7.31528 14.0435 7.23725 13.9046 7.09834C13.7657 6.95944 13.6877 6.77104 13.6877 6.5746C13.6877 6.37816 13.7657 6.18977 13.9046 6.05086C14.0435 5.91196 14.2319 5.83392 14.4284 5.83392C14.6248 5.83392 14.8132 5.91196 14.9521 6.05086C15.091 6.18977 15.169 6.37816 15.169 6.5746ZM11.0015 7.94535C10.4567 7.94535 9.93421 8.16177 9.54898 8.547C9.16375 8.93223 8.94733 9.45471 8.94733 9.99951C8.94733 10.5443 9.16375 11.0668 9.54898 11.452C9.93421 11.8372 10.4567 12.0537 11.0015 12.0537C11.5463 12.0537 12.0688 11.8372 12.454 11.452C12.8392 11.0668 13.0556 10.5443 13.0556 9.99951C13.0556 9.45471 12.8392 8.93223 12.454 8.547C12.0688 8.16177 11.5463 7.94535 11.0015 7.94535ZM7.95877 9.99951C7.95877 9.19279 8.27924 8.41912 8.84967 7.84868C9.4201 7.27825 10.1938 6.95778 11.0005 6.95778C11.8072 6.95778 12.5809 7.27825 13.1513 7.84868C13.7218 8.41912 14.0422 9.19279 14.0422 9.99951C14.0422 10.8062 13.7218 11.5799 13.1513 12.1503C12.5809 12.7208 11.8072 13.0412 11.0005 13.0412C10.1938 13.0412 9.4201 12.7208 8.84967 12.1503C8.27924 11.5799 7.95877 10.8062 7.95877 9.99951Z" fill="#FFD700"/>
<path fill-rule="evenodd" clip-rule="evenodd" d="M7.57164 4C6.88977 4 6.23581 4.2708 5.75356 4.75287C5.27132 5.23493 5.00026 5.88878 5 6.57065V13.4284C5 14.1104 5.27094 14.7645 5.75322 15.2468C6.23549 15.7291 6.8896 16 7.57164 16H14.4293C15.1112 15.9997 15.7651 15.7287 16.2471 15.2464C16.7292 14.7642 17 14.1102 17 13.4284V6.57065C16.9997 5.88895 16.7288 5.23525 16.2468 4.75322C15.7647 4.27118 15.111 4.00026 14.4293 4H7.57164ZM15.169 6.5746C15.169 6.77104 15.091 6.95944 14.9521 7.09834C14.8132 7.23725 14.6248 7.31528 14.4284 7.31528C14.2319 7.31528 14.0435 7.23725 13.9046 7.09834C13.7657 6.95944 13.6877 6.77104 13.6877 6.5746C13.6877 6.37816 13.7657 6.18977 13.9046 6.05086C14.0435 5.91196 14.2319 5.83392 14.4284 5.83392C14.6248 5.83392 14.8132 5.91196 14.9521 6.05086C15.091 6.18977 15.169 6.37816 15.169 6.5746ZM11.0015 7.94535C10.4567 7.94535 9.93421 8.16177 9.54898 8.547C9.16375 8.93223 8.94733 9.45471 8.94733 9.99951C8.94733 10.5443 9.16375 11.0668 9.54898 11.452C9.93421 11.8372 10.4567 12.0537 11.0015 12.0537C11.5463 12.0537 12.0688 11.8372 12.454 11.452C12.8392 11.0668 13.0556 10.5443 13.0556 9.99951C13.0556 9.45471 12.8392 8.93223 12.454 8.547C12.0688 8.16177 11.5463 7.94535 11.0015 7.94535ZM7.95877 9.99951C7.95877 9.19279 8.27924 8.41912 8.84967 7.84868C9.4201 7.27825 10.1938 6.95778 11.0005 6.95778C11.8072 6.95778 12.5809 7.27825 13.1513 7.84868C13.7218 8.41912 14.0422 9.19279 14.0422 9.99951C14.0422 10.8062 13.7218 11.5799 13.1513 12.1503C12.5809 12.7208 11.8072 13.0412 11.0005 13.0412C10.1938 13.0412 9.4201 12.7208 8.84967 12.1503C8.27924 11.5799 7.95877 10.8062 7.95877 9.99951Z" fill="url(#paint0_radial_35_5)"/>
<defs>
<radialGradient id="paint0_radial_35_5" cx="0" cy="0" r="1" gradientUnits="userSpaceOnUse" gradientTransform="translate(11 10) rotate(89.3986) scale(13.0408)">
<stop stop-color="#FFD700" stop-opacity="0"/>
<stop offset="0.6" stop-color="#B09500"/>
</radialGradient>
</defs>
</svg>
