<svg width="22" height="20" viewBox="0 0 22 20" fill="none" xmlns="http://www.w3.org/2000/svg">
<path d="M0 5C0 2.23858 2.23858 0 5 0H17C19.7614 0 22 2.23858 22 5V15C22 17.7614 19.7614 20 17 20H5C2.23858 20 0 17.7614 0 15V5Z" fill="white"/>
<path d="M14.2634 4H7.73662C7.01082 4 6.31475 4.28832 5.80154 4.80154C5.28832 5.31475 5 6.01082 5 6.73662V13.2634C5 13.9892 5.28832 14.6852 5.80154 15.1985C6.31475 15.7117 7.01082 16 7.73662 16H14.2634C14.9892 16 15.6852 15.7117 16.1985 15.1985C16.7117 14.6852 17 13.9892 17 13.2634V6.73662C17 6.01082 16.7117 5.31475 16.1985 4.80154C15.6852 4.28832 14.9892 4 14.2634 4ZM9.05723 13.6874C9.05916 13.7209 9.05422 13.7544 9.04272 13.7859C9.03121 13.8175 9.01339 13.8463 8.99034 13.8707C8.96728 13.895 8.93949 13.9145 8.90866 13.9277C8.87784 13.9409 8.84463 13.9477 8.81108 13.9477H7.71569C7.64969 13.9459 7.58699 13.9184 7.54099 13.871C7.495 13.8237 7.46935 13.7602 7.46954 13.6942V9.13846C7.46863 9.10557 7.47433 9.07283 7.4863 9.04218C7.49826 9.01153 7.51625 8.98359 7.5392 8.96001C7.56215 8.93643 7.58959 8.91769 7.6199 8.9049C7.65022 8.89211 7.68279 8.88553 7.71569 8.88554H8.81108C8.844 8.88544 8.87661 8.89197 8.90697 8.90473C8.93732 8.91749 8.9648 8.93623 8.98776 8.95982C9.01073 8.98342 9.02871 9.0114 9.04065 9.04209C9.05258 9.07277 9.05822 9.10555 9.05723 9.13846V13.6874ZM8.24308 7.92738C8.12448 7.9265 8.00723 7.90226 7.898 7.85605C7.78877 7.80985 7.68972 7.74258 7.60649 7.65809C7.52326 7.57361 7.45748 7.47355 7.41292 7.36365C7.36836 7.25374 7.34588 7.13613 7.34677 7.01754C7.34766 6.89894 7.3719 6.78169 7.4181 6.67246C7.46431 6.56324 7.53157 6.46418 7.61606 6.38095C7.70055 6.29772 7.8006 6.23195 7.91051 6.18738C8.02041 6.14282 8.13802 6.12034 8.25662 6.12123C8.49201 6.12889 8.71509 6.22823 8.87827 6.39807C9.04144 6.5679 9.13178 6.79478 9.13002 7.03029C9.12825 7.26581 9.03451 7.49131 8.86881 7.65867C8.70311 7.82604 8.47856 7.92203 8.24308 7.92615M14.8997 13.68C14.8996 13.7422 14.8752 13.802 14.8318 13.8465C14.7884 13.8911 14.7293 13.917 14.6671 13.9188H13.5108C13.4485 13.9169 13.3894 13.8908 13.346 13.8461C13.3026 13.8015 13.2783 13.7417 13.2782 13.6794V11.5723C13.2782 11.2578 13.3742 10.2043 12.4437 10.2043C11.7182 10.2043 11.5748 10.9428 11.5471 11.2714V13.7274C11.5471 13.7898 11.5228 13.8497 11.4794 13.8945C11.436 13.9393 11.3768 13.9655 11.3145 13.9674H10.1926C10.1611 13.9674 10.1299 13.9612 10.1009 13.9491C10.0718 13.937 10.0454 13.9193 10.0231 13.8971C10.0009 13.8748 9.98327 13.8483 9.97128 13.8192C9.95928 13.7901 9.95315 13.7589 9.95323 13.7274V9.11631C9.955 9.05389 9.98108 8.99464 10.0259 8.95118C10.0708 8.90772 10.1308 8.88351 10.1932 8.88369H11.3145C11.3769 8.88351 11.4369 8.90772 11.4818 8.95118C11.5266 8.99464 11.5527 9.05389 11.5545 9.11631V9.51323C11.7182 9.27361 11.9442 9.08324 12.2082 8.96265C12.4721 8.84205 12.764 8.79582 13.0523 8.82892C14.92 8.82892 14.9132 10.5735 14.9132 11.5655L14.8997 13.68Z" fill="#FFD700"/>
<path d="M14.2634 4H7.73662C7.01082 4 6.31475 4.28832 5.80154 4.80154C5.28832 5.31475 5 6.01082 5 6.73662V13.2634C5 13.9892 5.28832 14.6852 5.80154 15.1985C6.31475 15.7117 7.01082 16 7.73662 16H14.2634C14.9892 16 15.6852 15.7117 16.1985 15.1985C16.7117 14.6852 17 13.9892 17 13.2634V6.73662C17 6.01082 16.7117 5.31475 16.1985 4.80154C15.6852 4.28832 14.9892 4 14.2634 4ZM9.05723 13.6874C9.05916 13.7209 9.05422 13.7544 9.04272 13.7859C9.03121 13.8175 9.01339 13.8463 8.99034 13.8707C8.96728 13.895 8.93949 13.9145 8.90866 13.9277C8.87784 13.9409 8.84463 13.9477 8.81108 13.9477H7.71569C7.64969 13.9459 7.58699 13.9184 7.54099 13.871C7.495 13.8237 7.46935 13.7602 7.46954 13.6942V9.13846C7.46863 9.10557 7.47433 9.07283 7.4863 9.04218C7.49826 9.01153 7.51625 8.98359 7.5392 8.96001C7.56215 8.93643 7.58959 8.91769 7.6199 8.9049C7.65022 8.89211 7.68279 8.88553 7.71569 8.88554H8.81108C8.844 8.88544 8.87661 8.89197 8.90697 8.90473C8.93732 8.91749 8.9648 8.93623 8.98776 8.95982C9.01073 8.98342 9.02871 9.0114 9.04065 9.04209C9.05258 9.07277 9.05822 9.10555 9.05723 9.13846V13.6874ZM8.24308 7.92738C8.12448 7.9265 8.00723 7.90226 7.898 7.85605C7.78877 7.80985 7.68972 7.74258 7.60649 7.65809C7.52326 7.57361 7.45748 7.47355 7.41292 7.36365C7.36836 7.25374 7.34588 7.13613 7.34677 7.01754C7.34766 6.89894 7.3719 6.78169 7.4181 6.67246C7.46431 6.56324 7.53157 6.46418 7.61606 6.38095C7.70055 6.29772 7.8006 6.23195 7.91051 6.18738C8.02041 6.14282 8.13802 6.12034 8.25662 6.12123C8.49201 6.12889 8.71509 6.22823 8.87827 6.39807C9.04144 6.5679 9.13178 6.79478 9.13002 7.03029C9.12825 7.26581 9.03451 7.49131 8.86881 7.65867C8.70311 7.82604 8.47856 7.92203 8.24308 7.92615M14.8997 13.68C14.8996 13.7422 14.8752 13.802 14.8318 13.8465C14.7884 13.8911 14.7293 13.917 14.6671 13.9188H13.5108C13.4485 13.9169 13.3894 13.8908 13.346 13.8461C13.3026 13.8015 13.2783 13.7417 13.2782 13.6794V11.5723C13.2782 11.2578 13.3742 10.2043 12.4437 10.2043C11.7182 10.2043 11.5748 10.9428 11.5471 11.2714V13.7274C11.5471 13.7898 11.5228 13.8497 11.4794 13.8945C11.436 13.9393 11.3768 13.9655 11.3145 13.9674H10.1926C10.1611 13.9674 10.1299 13.9612 10.1009 13.9491C10.0718 13.937 10.0454 13.9193 10.0231 13.8971C10.0009 13.8748 9.98327 13.8483 9.97128 13.8192C9.95928 13.7901 9.95315 13.7589 9.95323 13.7274V9.11631C9.955 9.05389 9.98108 8.99464 10.0259 8.95118C10.0708 8.90772 10.1308 8.88351 10.1932 8.88369H11.3145C11.3769 8.88351 11.4369 8.90772 11.4818 8.95118C11.5266 8.99464 11.5527 9.05389 11.5545 9.11631V9.51323C11.7182 9.27361 11.9442 9.08324 12.2082 8.96265C12.4721 8.84205 12.764 8.79582 13.0523 8.82892C14.92 8.82892 14.9132 10.5735 14.9132 11.5655L14.8997 13.68Z" fill="url(#paint0_radial_35_8)"/>
<defs>
<radialGradient id="paint0_radial_35_8" cx="0" cy="0" r="1" gradientUnits="userSpaceOnUse" gradientTransform="translate(11 10) rotate(90) scale(12.0615)">
<stop stop-color="#FFD700" stop-opacity="0"/>
<stop offset="0.6" stop-color="#B09500"/>
</radialGradient>
</defs>
</svg>
