<svg width="22" height="20" viewBox="0 0 22 20" fill="none" xmlns="http://www.w3.org/2000/svg">
<path d="M0 5C0 2.23858 2.23858 0 5 0H17C19.7614 0 22 2.23858 22 5V15C22 17.7614 19.7614 20 17 20H5C2.23858 20 0 17.7614 0 15V5Z" fill="white"/>
<path d="M17 13V7C17 6.44667 16.5273 6 15.9418 6H6.0582C5.47266 6 5 6.44667 5 7V13C5 13.5533 5.47266 14 6.0582 14H15.9418C16.5273 14 17 13.5533 17 13ZM16.0758 6.92667C16.3086 7.14667 16.1817 7.37333 16.0547 7.48667L13.1905 9.96667L15.9418 12.6733C16.0265 12.7667 16.0829 12.9133 15.9841 13.0133C15.8924 13.12 15.6808 13.1133 15.5891 13.0467L12.5062 10.56L10.9965 11.86L9.49383 10.56L6.41093 13.0467C6.31922 13.1133 6.10758 13.12 6.01587 13.0133C5.91711 12.9133 5.97354 12.7667 6.0582 12.6733L8.80952 9.96667L5.94533 7.48667C5.81834 7.37333 5.69136 7.14667 5.92416 6.92667C6.15697 6.70667 6.39683 6.81333 6.59436 6.97333L10.9965 10.3333L15.4056 6.97333C15.6032 6.81333 15.843 6.70667 16.0758 6.92667Z" fill="#FFD700"/>
<path d="M17 13V7C17 6.44667 16.5273 6 15.9418 6H6.0582C5.47266 6 5 6.44667 5 7V13C5 13.5533 5.47266 14 6.0582 14H15.9418C16.5273 14 17 13.5533 17 13ZM16.0758 6.92667C16.3086 7.14667 16.1817 7.37333 16.0547 7.48667L13.1905 9.96667L15.9418 12.6733C16.0265 12.7667 16.0829 12.9133 15.9841 13.0133C15.8924 13.12 15.6808 13.1133 15.5891 13.0467L12.5062 10.56L10.9965 11.86L9.49383 10.56L6.41093 13.0467C6.31922 13.1133 6.10758 13.12 6.01587 13.0133C5.91711 12.9133 5.97354 12.7667 6.0582 12.6733L8.80952 9.96667L5.94533 7.48667C5.81834 7.37333 5.69136 7.14667 5.92416 6.92667C6.15697 6.70667 6.39683 6.81333 6.59436 6.97333L10.9965 10.3333L15.4056 6.97333C15.6032 6.81333 15.843 6.70667 16.0758 6.92667Z" fill="url(#paint0_radial_30_71)"/>
<defs>
<radialGradient id="paint0_radial_30_71" cx="0" cy="0" r="1" gradientUnits="userSpaceOnUse" gradientTransform="translate(11 10) rotate(88.8844) scale(6.2234 9.33472)">
<stop stop-color="#FFD700" stop-opacity="0"/>
<stop offset="1" stop-color="#B09500"/>
</radialGradient>
</defs>
</svg>
