<svg width="13" height="12" viewBox="0 0 13 12" fill="none" xmlns="http://www.w3.org/2000/svg">
<path d="M2.28125 0.15456L11.4376 4.91894C11.6354 5.02187 11.8012 5.1771 11.9169 5.36773C12.0326 5.55836 12.0938 5.77707 12.0938 6.00006C12.0938 6.22305 12.0326 6.44176 11.9169 6.63239C11.8012 6.82302 11.6354 6.97825 11.4376 7.08119L2.28125 11.8456C2.09549 11.9422 1.88796 11.9894 1.67867 11.9825C1.46938 11.9756 1.2654 11.9149 1.08639 11.8062C0.907386 11.6976 0.759392 11.5447 0.656681 11.3622C0.553971 11.1797 0.500009 10.9738 0.5 10.7644V1.23569C0.499945 1.03333 0.550277 0.834139 0.646455 0.656097C0.742634 0.478055 0.881631 0.326764 1.0509 0.215876C1.22017 0.104988 1.41439 0.0379933 1.61603 0.0209382C1.81767 0.0038831 2.02038 0.0373042 2.20587 0.118185L2.28125 0.15456ZM1.8485 0.986311L1.80725 0.968686C1.76498 0.954674 1.71999 0.950898 1.67598 0.957669C1.63197 0.96444 1.5902 0.981565 1.5541 1.00763C1.518 1.0337 1.4886 1.06797 1.46833 1.10762C1.44806 1.14726 1.43749 1.19116 1.4375 1.23569V10.7644C1.43753 10.8127 1.45 10.8602 1.4737 10.9023C1.49741 10.9444 1.53156 10.9797 1.57286 11.0047C1.61415 11.0298 1.66121 11.0438 1.70949 11.0454C1.75777 11.047 1.80564 11.0361 1.8485 11.0138L11.0049 6.24944C11.0505 6.22566 11.0887 6.18984 11.1153 6.14588C11.142 6.10191 11.1561 6.05148 11.1561 6.00006C11.1561 5.94864 11.142 5.89821 11.1153 5.85424C11.0887 5.81028 11.0505 5.77446 11.0049 5.75069L1.8485 0.986311Z" fill="#556B2F"/>
</svg>
