<svg width="12" height="12" viewBox="0 0 12 12" fill="none" xmlns="http://www.w3.org/2000/svg">
<path fill-rule="evenodd" clip-rule="evenodd" d="M5.81057 0.0446958C5.87602 0.0814545 5.93115 0.138556 5.96966 0.209489C6.00817 0.280422 6.02851 0.36233 6.02836 0.445873V11.1439C6.02842 11.2274 6.00801 11.3092 5.96948 11.3801C5.93095 11.4509 5.87584 11.5079 5.81042 11.5446C5.745 11.5813 5.67191 11.5962 5.59946 11.5876C5.52701 11.5791 5.45812 11.5473 5.40064 11.4961L2.50547 8.91517H1.16678C0.857331 8.91517 0.560556 8.77429 0.341742 8.5235C0.122928 8.27272 0 7.93258 0 7.57792L0 4.01189C0 3.65723 0.122928 3.31709 0.341742 3.06631C0.560556 2.81553 0.857331 2.67464 1.16678 2.67464H2.50547L5.40064 0.0937286C5.45817 0.0425052 5.52711 0.0108335 5.59958 0.00232204C5.67206 -0.00618937 5.74516 0.00880173 5.81057 0.0455873M5.25051 1.35788L2.87806 3.47253C2.80975 3.53329 2.72572 3.56623 2.63926 3.56614H1.16678C1.06363 3.56614 0.964705 3.61311 0.891767 3.6967C0.81883 3.7803 0.777853 3.89367 0.777853 4.01189V7.57792C0.777853 7.69614 0.81883 7.80952 0.891767 7.89311C0.964705 7.97671 1.06363 8.02367 1.16678 8.02367H2.63926C2.72572 8.02358 2.80975 8.05652 2.87806 8.11728L5.25051 10.2328V1.35788ZM7.99478 2.54002C8.02879 2.514 8.06694 2.49593 8.10704 2.48682C8.14715 2.47771 8.18843 2.47776 8.22853 2.48695C8.26862 2.49614 8.30674 2.51429 8.34071 2.54038C8.37468 2.56647 8.40382 2.59997 8.42649 2.63898C8.96783 3.57474 9.25654 4.67259 9.25654 5.79535C9.25654 6.91811 8.96783 8.01597 8.42649 8.95173C8.38013 9.02866 8.30926 9.08165 8.22914 9.09928C8.14903 9.11691 8.06607 9.09777 7.99815 9.04599C7.93022 8.99421 7.88276 8.91392 7.86598 8.82242C7.8492 8.73092 7.86445 8.63553 7.90844 8.55679C8.38172 7.73814 8.63411 6.77785 8.63411 5.7958C8.63411 4.81375 8.38172 3.85346 7.90844 3.0348C7.88574 2.99583 7.86996 2.9521 7.86202 2.90614C7.85407 2.86017 7.85411 2.81285 7.86213 2.7669C7.87015 2.72095 7.88599 2.67726 7.90875 2.63833C7.93151 2.5994 7.96074 2.56599 7.99478 2.54002ZM9.86163 0.384359C9.8082 0.312245 9.73196 0.26741 9.64968 0.25972C9.56741 0.252029 9.48584 0.282112 9.42292 0.34335C9.36 0.404589 9.32088 0.491966 9.31417 0.586261C9.30746 0.680556 9.3337 0.774044 9.38714 0.846159C10.4076 2.23024 10.9675 3.98375 10.9675 5.7958C10.9675 7.60785 10.4076 9.36136 9.38714 10.7454C9.3337 10.8176 9.30746 10.911 9.31417 11.0053C9.32088 11.0996 9.36 11.187 9.42292 11.2482C9.48584 11.3095 9.56741 11.3396 9.64968 11.3319C9.73196 11.3242 9.8082 11.2793 9.86163 11.2072C10.9777 9.69422 11.59 7.77703 11.59 5.7958C11.59 3.81456 10.9777 1.89737 9.86163 0.384359Z" fill="#556B2F"/>
</svg>
